<mxfile host="app.diagrams.net" modified="2023-04-13T07:48:06.592Z" agent="Mozilla/5.0 (Windows NT 10.0; Win64; x64; rv:109.0) Gecko/20100101 Firefox/112.0" etag="TC9qKii0_Rq7JKJvSbM2" version="21.1.7" type="device">
  <diagram name="Page-1" id="VJtyxQ2RTHAD36A3p6ny">
    <mxGraphModel dx="1372" dy="779" grid="1" gridSize="10" guides="1" tooltips="1" connect="1" arrows="1" fold="1" page="1" pageScale="1" pageWidth="850" pageHeight="1100" math="0" shadow="0">
      <root>
        <mxCell id="0" />
        <mxCell id="1" parent="0" />
        <mxCell id="R2AB_OP7W7jM0Jj_TJfU-1" value="" style="shape=image;verticalLabelPosition=bottom;labelBackgroundColor=default;verticalAlign=top;aspect=fixed;imageAspect=0;image=https://upload.wikimedia.org/wikipedia/commons/thumb/d/dd/MediaWiki-2020-logo.svg/1200px-MediaWiki-2020-logo.svg.png;" vertex="1" parent="1">
          <mxGeometry x="40" y="35.56" width="188" height="208.89" as="geometry" />
        </mxCell>
        <mxCell id="R2AB_OP7W7jM0Jj_TJfU-2" value="WikiRef&lt;br&gt;Analyse" style="rounded=0;whiteSpace=wrap;html=1;" vertex="1" parent="1">
          <mxGeometry x="270" y="110" width="120" height="60" as="geometry" />
        </mxCell>
        <mxCell id="R2AB_OP7W7jM0Jj_TJfU-3" value="&lt;div&gt;WikiRef&lt;/div&gt;&lt;div&gt;Script&lt;br&gt;&lt;/div&gt;" style="rounded=0;whiteSpace=wrap;html=1;" vertex="1" parent="1">
          <mxGeometry x="570" y="60" width="120" height="60" as="geometry" />
        </mxCell>
        <mxCell id="R2AB_OP7W7jM0Jj_TJfU-4" value="&lt;div&gt;WikiRef&lt;/div&gt;&lt;div&gt;Archive&lt;br&gt;&lt;/div&gt;" style="rounded=0;whiteSpace=wrap;html=1;" vertex="1" parent="1">
          <mxGeometry x="570" y="160" width="120" height="60" as="geometry" />
        </mxCell>
        <mxCell id="R2AB_OP7W7jM0Jj_TJfU-5" value="output;json" style="ellipse;whiteSpace=wrap;html=1;aspect=fixed;" vertex="1" parent="1">
          <mxGeometry x="440" y="100" width="80" height="80" as="geometry" />
        </mxCell>
        <mxCell id="R2AB_OP7W7jM0Jj_TJfU-6" value="" style="endArrow=none;html=1;rounded=0;exitX=1;exitY=0.5;exitDx=0;exitDy=0;entryX=0;entryY=0.5;entryDx=0;entryDy=0;" edge="1" parent="1" source="R2AB_OP7W7jM0Jj_TJfU-1" target="R2AB_OP7W7jM0Jj_TJfU-2">
          <mxGeometry width="50" height="50" relative="1" as="geometry">
            <mxPoint x="400" y="240" as="sourcePoint" />
            <mxPoint x="450" y="190" as="targetPoint" />
          </mxGeometry>
        </mxCell>
        <mxCell id="R2AB_OP7W7jM0Jj_TJfU-7" value="" style="endArrow=classic;html=1;rounded=0;exitX=1;exitY=0.5;exitDx=0;exitDy=0;entryX=0;entryY=0.5;entryDx=0;entryDy=0;" edge="1" parent="1" source="R2AB_OP7W7jM0Jj_TJfU-2" target="R2AB_OP7W7jM0Jj_TJfU-5">
          <mxGeometry width="50" height="50" relative="1" as="geometry">
            <mxPoint x="400" y="240" as="sourcePoint" />
            <mxPoint x="450" y="190" as="targetPoint" />
          </mxGeometry>
        </mxCell>
        <mxCell id="R2AB_OP7W7jM0Jj_TJfU-8" value="" style="endArrow=classic;html=1;rounded=0;entryX=0;entryY=0.5;entryDx=0;entryDy=0;exitX=1;exitY=0;exitDx=0;exitDy=0;" edge="1" parent="1" source="R2AB_OP7W7jM0Jj_TJfU-5" target="R2AB_OP7W7jM0Jj_TJfU-3">
          <mxGeometry width="50" height="50" relative="1" as="geometry">
            <mxPoint x="400" y="240" as="sourcePoint" />
            <mxPoint x="450" y="190" as="targetPoint" />
          </mxGeometry>
        </mxCell>
        <mxCell id="R2AB_OP7W7jM0Jj_TJfU-9" value="" style="endArrow=classic;html=1;rounded=0;exitX=1;exitY=1;exitDx=0;exitDy=0;entryX=0;entryY=0.5;entryDx=0;entryDy=0;" edge="1" parent="1" source="R2AB_OP7W7jM0Jj_TJfU-5" target="R2AB_OP7W7jM0Jj_TJfU-4">
          <mxGeometry width="50" height="50" relative="1" as="geometry">
            <mxPoint x="400" y="240" as="sourcePoint" />
            <mxPoint x="450" y="190" as="targetPoint" />
          </mxGeometry>
        </mxCell>
        <mxCell id="R2AB_OP7W7jM0Jj_TJfU-11" value="Archive.org" style="ellipse;whiteSpace=wrap;html=1;aspect=fixed;" vertex="1" parent="1">
          <mxGeometry x="730" y="150" width="80" height="80" as="geometry" />
        </mxCell>
        <mxCell id="R2AB_OP7W7jM0Jj_TJfU-12" value="&lt;div&gt;Download&lt;/div&gt;&lt;div&gt;script&lt;/div&gt;" style="ellipse;whiteSpace=wrap;html=1;aspect=fixed;" vertex="1" parent="1">
          <mxGeometry x="730" y="50" width="80" height="80" as="geometry" />
        </mxCell>
        <mxCell id="R2AB_OP7W7jM0Jj_TJfU-13" value="" style="endArrow=classic;html=1;rounded=0;exitX=1;exitY=0.5;exitDx=0;exitDy=0;" edge="1" parent="1" source="R2AB_OP7W7jM0Jj_TJfU-3" target="R2AB_OP7W7jM0Jj_TJfU-12">
          <mxGeometry width="50" height="50" relative="1" as="geometry">
            <mxPoint x="400" y="240" as="sourcePoint" />
            <mxPoint x="450" y="190" as="targetPoint" />
          </mxGeometry>
        </mxCell>
        <mxCell id="R2AB_OP7W7jM0Jj_TJfU-16" value="" style="endArrow=classic;html=1;rounded=0;entryX=0;entryY=0.5;entryDx=0;entryDy=0;" edge="1" parent="1" source="R2AB_OP7W7jM0Jj_TJfU-4" target="R2AB_OP7W7jM0Jj_TJfU-11">
          <mxGeometry width="50" height="50" relative="1" as="geometry">
            <mxPoint x="400" y="240" as="sourcePoint" />
            <mxPoint x="450" y="190" as="targetPoint" />
          </mxGeometry>
        </mxCell>
      </root>
    </mxGraphModel>
  </diagram>
</mxfile>
